<?xml version="1.0" encoding="UTF-8"?>
<svg version="1.1" xmlns="http://www.w3.org/2000/svg" width="30" height="30">
<path d="M0 0 C12.52604828 -0.7090216 12.52604828 -0.7090216 16.265625 1.08984375 C19.38654913 3.94564083 19.95937004 5.58015705 20.375 9.875 C20.25125 10.90625 20.1275 11.9375 20 13 C19.38125 12.855625 18.7625 12.71125 18.125 12.5625 C13.77462983 11.77943337 9.39978093 11.40153341 5 11 C5 11.66 5 12.32 5 13 C5.56847656 12.98839844 6.13695312 12.97679687 6.72265625 12.96484375 C11.5763998 12.90812221 16.22035217 13.02456167 21 14 C23.52120169 16.52120169 23.43256735 18.48021276 23.75390625 21.9296875 C24.00228055 24.01918557 24.4495876 25.9712072 25 28 C24.20078125 27.855625 23.4015625 27.71125 22.578125 27.5625 C21.47984375 27.376875 20.3815625 27.19125 19.25 27 C18.18265625 26.814375 17.1153125 26.62875 16.015625 26.4375 C10.70650842 25.85907485 5.34053317 26 0 26 C0 17.42 0 8.84 0 0 Z M12 3 C12.33 4.65 12.66 6.3 13 8 C14.32 7.67 15.64 7.34 17 7 C15.35 5.68 13.7 4.36 12 3 Z M5 15 C5 15.66 5 16.32 5 17 C6.65 17 8.3 17 10 17 C10 17.66 10 18.32 10 19 C8.35 19 6.7 19 5 19 C5 19.66 5 20.32 5 21 C6.65 21 8.3 21 10 21 C10.33 21.66 10.66 22.32 11 23 C11.33 20.36 11.66 17.72 12 15 C9.69 15 7.38 15 5 15 Z M15 17 C14.67 18.65 14.34 20.3 14 22 C16.475 22.495 16.475 22.495 19 23 C19.33 21.35 19.66 19.7 20 18 C18.35 17.67 16.7 17.34 15 17 Z " fill="#627281" transform="translate(5,2)"/>
</svg>
