<svg xmlns="http://www.w3.org/2000/svg" xmlns:xlink="http://www.w3.org/1999/xlink" viewBox="0,0,256,256" width="64px" height="64px" fill-rule="nonzero"><g fill="#ffffff" fill-rule="nonzero" stroke="none" stroke-width="1" stroke-linecap="butt" stroke-linejoin="miter" stroke-miterlimit="10" stroke-dasharray="" stroke-dashoffset="0" font-family="none" font-weight="none" font-size="none" text-anchor="none" style="mix-blend-mode: normal"><path d="M0,256v-256h256v256z" id="bgRectangle"></path></g><g fill="none" fill-rule="nonzero" stroke="none" stroke-width="none" stroke-linecap="butt" stroke-linejoin="none" stroke-miterlimit="10" stroke-dasharray="" stroke-dashoffset="0" font-family="none" font-weight="none" font-size="none" text-anchor="none" style="mix-blend-mode: normal"><path transform="scale(4,4)" d="M28,10.91992l7,-2l7.0625,2.01758l7.16797,-1.5918l3.76953,2.53906v8.11523h8l-1.68555,30.33203c-0.177,3.179 -2.80623,5.66797 -5.99023,5.66797h-42.32422c-3.314,0 -6,-2.686 -6,-6v-38.52539l3.30469,-2.18164l5.69531,1.62695l7,-2z" id="strokeMainSVG" fill="#bcc2c9" stroke="#bcc2c9" stroke-width="8" stroke-linejoin="round"></path><g transform="scale(4,4)" fill="#637381" stroke="none" stroke-width="1" stroke-linejoin="miter"><path d="M21,8.91992l-7,2l-5.69531,-1.62695l-3.30469,2.18164v38.52539c0,3.314 2.686,6 6,6h38h4h0.32422c3.184,0 5.81323,-2.48897 5.99023,-5.66797l1.68555,-30.33203h-8v-8.11523l-3.76953,-2.53906l-7.16797,1.5918l-7.0625,-2.01758l-7,2zM21,13.08008l7,2l7,-2l6.9375,1.98242l7.0625,-1.57031v6.50781v32h-38c-1.105,0 -2,-0.895 -2,-2v-36.34961l5,1.42969zM14,20v20h18v-20zM36,20v4h8v-4zM36,28v4h8v-4zM36,36v4h8v-4zM14,44v4h18v-4zM36,44v4h8v-4z"></path></g></g></svg>